PathFileType	4	(X/Y/Z)	C:/Users/opensim2020/Desktop/walking_exp_matlab/subject03_walking09_straight_01.trc																																																																																																																																											
DataRate	CameraRate	NumFrames	NumMarkers	Units	OrigDataRate	OrigDataStartFrame	OrigNumFrames																																																																																																																																							
100	100	4	47	mm	100	1056	493																																																																																																																																							
Frame#	Time	LFHD			RFHD			LBHD			RBHD			C7			T10			CLAV			STRN			RBAK			LSHO			LUPA			LELB			LFRM			LWRA			LWRB			LFIN			RSHO			RUPA			RELB			RFRM			RWRA			RWRB			RFIN			LASI			RASI			LPSI			RPSI			LTHI			LKNE			LTIB			LANK			LHEE			LTOE			RTHI			RKNE			RTIB			RANK			RHEE			RTOE			*39			*40			*41			*42			*43			*44			*45			*46		
		X1	Y1	Z1	X2	Y2	Z2	X3	Y3	Z3	X4	Y4	Z4	X5	Y5	Z5	X6	Y6	Z6	X7	Y7	Z7	X8	Y8	Z8	X9	Y9	Z9	X10	Y10	Z10	X11	Y11	Z11	X12	Y12	Z12	X13	Y13	Z13	X14	Y14	Z14	X15	Y15	Z15	X16	Y16	Z16	X17	Y17	Z17	X18	Y18	Z18	X19	Y19	Z19	X20	Y20	Z20	X21	Y21	Z21	X22	Y22	Z22	X23	Y23	Z23	X24	Y24	Z24	X25	Y25	Z25	X26	Y26	Z26	X27	Y27	Z27	X28	Y28	Z28	X29	Y29	Z29	X30	Y30	Z30	X31	Y31	Z31	X32	Y32	Z32	X33	Y33	Z33	X34	Y34	Z34	X35	Y35	Z35	X36	Y36	Z36	X37	Y37	Z37	X38	Y38	Z38	X39	Y39	Z39	X40	Y40	Z40	X41	Y41	Z41	X42	Y42	Z42	X43	Y43	Z43	X44	Y44	Z44	X45	Y45	Z45	X46	Y46	Z46	X47	Y47	Z47
																																																																																																																																														
432	4.31	1031.33362	1619.22205	-1104.1427	1002.60754	1624.67993	-974.59894	904.21863	1579.63904	-1127.17358	881.1864	1584.60254	-998.75604	857.97833	1418.03992	-1071.28857	828.63165	1103.5658	-1069.86877	979.2691	1342.37	-1055.21008	1024.43335	1177.94031	-1055.4541	795.99243	1241.17542	-980.69043	954.1076	1378.09448	-1213.72327	988.62006	1188.51489	-1289.80933	1027.05981	1072.40442	-1303.1759	1089.82239	959.01642	-1294.56677	1138.56506	853.14783	-1258.40198	1125.33557	851.9353	-1312.28955	1167.40796	780.52924	-1298.98328	915.71899	1364.31079	-901.26801	921.49707	1141.35486	-828.26599	944.09882	1031.70581	-812.13275	973.91132	898.25769	-807.49731	1018.30902	807.65375	-838.79425	983.00226	798.6015	-798.87274	1016.65753	732.93207	-804.04926	1002.32709	939.11652	-1173.45984	987.65094	942.61108	-934.22083	836.31891	966.64191	-1132.28394	829.15051	969.82635	-983.33936	926.62042	638.89093	-1203.72913	912.64508	462.31131	-1160.63452	845.48798	277.92505	-1159.10608	808.97302	71.0974	-1113.05798	766.52454	39.91718	-1077.60889	960.10797	29.09053	-1087.64929	982.46643	649.57446	-881.68793	1046.39746	480.05203	-908.99152	998.68463	295.06958	-901.42175	967.93823	79.45217	-939.64587	926.94476	44.67706	-994.76678	1103.10193	41.26976	-940.6123	942.20654	1682.28748	-1072.07947	NaN	NaN	NaN	NaN	NaN	NaN	NaN	NaN	NaN	NaN	NaN	NaN	NaN	NaN	NaN	NaN	NaN	NaN	NaN	NaN	NaN
433	4.32	1036.03418	1619.11157	-1103.39771	1007.06537	1624.26782	-973.82196	908.96185	1579.32996	-1126.61353	885.72919	1584.04932	-998.15607	862.8042	1417.65894	-1071.02136	833.47406	1103.19409	-1069.54932	984.03094	1341.97705	-1054.79675	1029.29395	1177.52734	-1055.25989	800.71667	1240.72034	-980.70642	959.10529	1377.88	-1213.26062	994.11395	1188.57886	-1289.53857	1033.11475	1072.69678	-1302.90723	1096.97302	960.07007	-1293.91284	1146.79028	854.88605	-1257.13586	1133.69202	853.36652	-1311.1333	1176.71802	782.59344	-1297.36377	920.29791	1363.74023	-900.95911	925.63074	1140.76465	-828.10175	948.03107	1031.05774	-811.86823	977.6322	897.58594	-807.11578	1021.96118	806.90637	-838.1853	986.60571	797.88428	-798.5412	1020.03656	732.18317	-803.61029	1006.5387	938.66748	-1173.48279	992.51733	942.138	-934.20148	840.98999	966.57007	-1131.86633	833.97803	969.48834	-982.95471	929.82062	638.78125	-1203.50513	914.88483	462.22498	-1160.67725	846.63605	278.18814	-1159.22668	809.07001	71.42525	-1113.10083	766.55756	40.38878	-1077.58704	960.177	29.12282	-1087.75745	987.73718	649.45374	-881.49048	1053.48303	480.44562	-909.4967	1011.34381	294.46375	-901.61774	987.81696	77.82822	-939.49878	947.36914	42.57439	-994.56122	1123.7356	41.46395	-941.26636	946.76422	1681.90259	-1071.29639	NaN	NaN	NaN	NaN	NaN	NaN	NaN	NaN	NaN	NaN	NaN	NaN	NaN	NaN	NaN	NaN	NaN	NaN	NaN	NaN	NaN
434	4.33	1040.75037	1618.90149	-1102.58118	1011.64624	1623.82178	-973.08795	913.724	1578.95837	-1125.98706	890.362	1583.48547	-997.59045	867.63171	1417.19153	-1070.61096	838.27637	1102.82153	-1069.14551	988.88251	1341.57043	-1054.3739	1034.16235	1177.10999	-1055.04126	805.48761	1240.19519	-980.65961	964.09161	1377.75134	-1212.89063	999.59601	1188.59912	-1289.31323	1038.93848	1072.89172	-1302.5343	1103.88818	960.99219	-1293.06067	1154.66614	856.42444	-1255.81567	1141.62219	854.49634	-1309.61255	1185.67297	784.57928	-1295.62988	924.83521	1363.14856	-900.60614	929.79681	1140.15051	-827.92273	951.99457	1030.42908	-811.61554	981.35199	896.93561	-806.7384	1025.67957	806.1546	-837.64465	990.0069	797.14435	-798.02509	1023.35864	731.26666	-803.01984	1010.92084	938.32458	-1173.22876	997.27966	941.66028	-934.38049	845.46674	966.41913	-1131.44885	838.84119	969.07587	-982.57184	933.03241	638.69159	-1203.48865	917.2688	462.21423	-1160.72559	847.87561	278.44958	-1159.28967	809.19446	71.7447	-1113.13025	766.57477	40.8749	-1077.64612	960.1889	29.01918	-1087.85071	993.92621	649.31274	-881.57928	1060.35815	480.72739	-910.03058	1023.81793	293.97876	-901.72919	1007.25525	76.62855	-939.22974	967.46191	40.96679	-994.28333	1144.1012	41.84958	-941.64417	951.28107	1681.51843	-1070.44751	NaN	NaN	NaN	NaN	NaN	NaN	NaN	NaN	NaN	NaN	NaN	NaN	NaN	NaN	NaN	NaN	NaN	NaN	NaN	NaN	NaN
435	4.34	1045.44666	1618.68677	-1101.71643	1016.1698	1623.36292	-972.21338	918.53156	1578.52588	-1125.33008	894.98163	1582.83447	-996.95984	872.50397	1416.7821	-1070.20496	843.11157	1102.43884	-1068.74414	993.73846	1341.14478	-1053.9104	1039.02307	1176.63721	-1054.78784	810.28003	1239.68298	-980.49982	969.08582	1377.54175	-1212.43127	1005.00348	1188.55664	-1288.89026	1044.63	1073.01929	-1302.14783	1110.53052	961.78021	-1292.19019	1162.32361	858.02313	-1254.35376	1149.35254	855.63361	-1308.25916	1194.23523	786.31775	-1293.74316	929.51721	1362.55457	-900.20526	934.00854	1139.5271	-827.71405	955.88507	1029.72644	-811.40375	985.11005	896.2359	-806.4024	1029.37793	805.39777	-837.16101	993.69586	796.44653	-797.85919	1026.76318	730.4668	-802.66803	1015.38336	938.00323	-1173.42029	1002.32721	941.17212	-934.14459	849.97144	966.10052	-1131.02527	843.65295	968.612	-982.12482	936.37988	638.57941	-1203.39905	919.68372	462.15002	-1160.82043	849.19684	278.69064	-1159.23633	809.36554	72.20661	-1113.07593	766.72131	41.33707	-1077.56958	960.26672	28.99666	-1087.92273	999.87714	649.08167	-881.47345	1067.06824	480.93384	-910.43915	1036.02563	293.59464	-901.79803	1026.14392	75.73156	-938.96185	987.21271	39.7659	-994.05389	1164.05188	42.8158	-941.81622	955.90845	1680.96301	-1069.51111	NaN	NaN	NaN	NaN	NaN	NaN	NaN	NaN	NaN	NaN	NaN	NaN	NaN	NaN	NaN	NaN	NaN	NaN	NaN	NaN	NaN
